# xmcd CD database file
#
# Track frame offsets:
#	150
#	12261
#	34016
#	46901
#	59922
#	73933
#	87836
#	131276
#	143474
#	157391
#	170997
#	183383
#	196874
#
# Disc length: 2800 seconds
#
# Revision: 3
# Processed by: cddbd v1.5.2PL0 Copyright (c) Steve Scherf et al.
# Submitted via: CDex 1.51
#
DISCID=bb0aee0d
DTITLE=Dizzy Gillespie - Salt Peanuts  [CD 08-10]
DYEAR=1900
DGENRE=Jazz
TTITLE0=Anthropology
TTITLE1=Cherokee
TTITLE2=Conchita
TTITLE3=A Chicken Ain't Nothin' But A Bird
TTITLE4=Birk's Works
TTITLE5=Buh De Daht
TTITLE6=Sweet Goergia Brown  (Part1 and Part2)
TTITLE7=The Real Thing Happened To Me
TTITLE8=Sabla Y Blu
TTITLE9=Smokey Hollow Jump
TTITLE10=Thinking Of You
TTITLE11=Rainbow Mist
TTITLE12=Shaw' Nuff
EXTD=
EXTT0=
EXTT1=
EXTT2=
EXTT3=
EXTT4=
EXTT5=
EXTT6=
EXTT7=
EXTT8=
EXTT9=
EXTT10=
EXTT11=
EXTT12=
PLAYORDER=
